<?xml version="1.0" encoding="UTF-8" standalone="no"?>
<!-- Created with Inkscape (http://www.inkscape.org/) -->
<svg
   xmlns:dc="http://purl.org/dc/elements/1.1/"
   xmlns:cc="http://creativecommons.org/ns#"
   xmlns:rdf="http://www.w3.org/1999/02/22-rdf-syntax-ns#"
   xmlns:svg="http://www.w3.org/2000/svg"
   xmlns="http://www.w3.org/2000/svg"
   xmlns:sodipodi="http://sodipodi.sourceforge.net/DTD/sodipodi-0.dtd"
   xmlns:inkscape="http://www.inkscape.org/namespaces/inkscape"
   width="90.494011"
   height="19.056749"
   id="svg15433"
   sodipodi:version="0.32"
   inkscape:version="0.46"
   version="1.0"
   sodipodi:docname="Konzum-Logo.svg"
   inkscape:output_extension="org.inkscape.output.svg.inkscape">
  <defs
     id="defs15435">
    <inkscape:perspective
       sodipodi:type="inkscape:persp3d"
       inkscape:vp_x="0 : 526.18109 : 1"
       inkscape:vp_y="0 : 1000 : 0"
       inkscape:vp_z="744.09448 : 526.18109 : 1"
       inkscape:persp3d-origin="372.04724 : 350.78739 : 1"
       id="perspective15441" />
  </defs>
  <sodipodi:namedview
     id="base"
     pagecolor="#ffffff"
     bordercolor="#666666"
     borderopacity="1.0"
     inkscape:pageopacity="0.0"
     inkscape:pageshadow="2"
     inkscape:zoom="6.2545576"
     inkscape:cx="45.247005"
     inkscape:cy="9.5283743"
     inkscape:document-units="px"
     inkscape:current-layer="layer1"
     showgrid="false"
     inkscape:window-width="640"
     inkscape:window-height="667"
     inkscape:window-x="88"
     inkscape:window-y="67" />
  <metadata
     id="metadata15438">
    <rdf:RDF>
      <cc:Work
         rdf:about="">
        <dc:format>image/svg+xml</dc:format>
        <dc:type
           rdf:resource="http://purl.org/dc/dcmitype/StillImage" />
      </cc:Work>
    </rdf:RDF>
  </metadata>
  <g
     inkscape:label="Ebene 1"
     inkscape:groupmode="layer"
     id="layer1"
     transform="translate(-134.753,-274.26238)">
    <g
       id="g57"
       transform="matrix(1.25,0,0,-1.25,156.54537,276.86988)">
      <path
         d="M 0,0 C -3.622,0 -6.557,-2.936 -6.557,-6.557 C -6.557,-10.179 -3.622,-13.114 0,-13.114 C 3.622,-13.114 6.557,-10.179 6.557,-6.557 C 6.557,-2.936 3.622,0 0,0 M 0,-9.717 C -1.746,-9.717 -3.161,-8.303 -3.161,-6.557 C -3.161,-4.812 -1.746,-3.397 0,-3.397 C 1.746,-3.397 3.161,-4.812 3.161,-6.557 C 3.161,-8.303 1.746,-9.717 0,-9.717"
         style="fill:#e31e2d;fill-opacity:1;fill-rule:nonzero;stroke:none"
         id="path59" />
    </g>
    <g
       id="g61"
       transform="matrix(1.25,0,0,-1.25,207.85737,277.38538)">
      <path
         d="M 0,0 L -3.429,0 L -3.429,-7.525 C -3.429,-8.637 -3.998,-9.598 -5.307,-9.598 C -6.508,-9.598 -7.221,-8.629 -7.221,-7.671 L -7.221,0 L -10.613,0 C -10.751,0 -10.873,-0.122 -10.873,-0.26 L -10.873,-7.323 C -10.873,-10.489 -8.609,-12.747 -5.307,-12.747 C -1.537,-12.747 0.26,-10.077 0.26,-7.286 L 0.26,-0.26 C 0.26,-0.122 0.138,0 0,0"
         style="fill:#e31e2d;fill-opacity:1;fill-rule:nonzero;stroke:none"
         id="path63" />
    </g>
    <g
       id="g65"
       transform="matrix(1.25,0,0,-1.25,192.87262,278.72588)">
      <path
         d="M 0,0 C 0.036,0.082 0.08,0.211 0.08,0.357 C 0.08,0.47 0.078,1.072 0.078,1.072 L -9.253,1.072 C -9.391,1.072 -9.513,0.95 -9.513,0.812 L -9.513,-1.966 L -5.15,-1.966 L -9.375,-10.35 C -9.389,-10.373 -9.41,-10.412 -9.432,-10.462 C -9.466,-10.546 -9.5,-10.658 -9.5,-10.784 C -9.5,-10.902 -9.507,-11.509 -9.507,-11.509 L 0.075,-11.509 L 0.075,-8.702 C 0.075,-8.564 -0.046,-8.442 -0.185,-8.442 L -4.386,-8.442 C -4.386,-8.442 -0.023,-0.05 0,0"
         style="fill:#e31e2d;fill-opacity:1;fill-rule:nonzero;stroke:none"
         id="path67" />
    </g>
    <g
       id="g69"
       transform="matrix(1.25,0,0,-1.25,224.66576,277.38538)">
      <path
         d="M 0,0 C -0.469,0 -0.651,-0.096 -0.802,-0.217 C -0.806,-0.219 -0.809,-0.222 -0.812,-0.225 L -5.631,-4.997 L -10.45,-0.225 C -10.453,-0.222 -10.457,-0.219 -10.46,-0.217 C -10.612,-0.096 -10.792,0 -11.262,0 L -11.727,0 L -11.727,-12.58 L -8.395,-12.58 L -8.395,-6.523 L -5.579,-9.458 L -2.84,-6.639 L -2.83,-12.58 L 0.465,-12.58 L 0.465,0 L 0,0 z"
         style="fill:#e31e2d;fill-opacity:1;fill-rule:nonzero;stroke:none"
         id="path71" />
    </g>
    <g
       id="g73"
       transform="matrix(1.25,0,0,-1.25,178.80724,277.38538)">
      <path
         d="M 0,0 L -3.305,0.001 L -3.305,-5.436 C -3.305,-5.436 -8.977,-0.218 -8.979,-0.216 C -9.129,-0.099 -9.312,-0.006 -9.773,-0.006 L -10.238,-0.006 L -10.238,-12.58 L -6.768,-12.581 L -6.773,-7.004 L -0.773,-12.594 L 0.26,-12.592 L 0.26,-0.26 C 0.26,-0.122 0.138,0 0,0"
         style="fill:#e31e2d;fill-opacity:1;fill-rule:nonzero;stroke:none"
         id="path75" />
    </g>
    <g
       id="g77"
       transform="matrix(1.25,0,0,-1.25,146.79675,281.25563)">
      <path
         d="M 0,0 L -2.503,2.503 L -6.143,-0.872 L -6.143,3.097 L -9.376,3.097 C -9.513,3.097 -9.635,2.975 -9.635,2.837 L -9.635,-9.523 L -6.143,-9.523 L -6.143,-5.528 L -2.159,-9.48 L 2.505,-9.48 L -3.464,-3.492 L 0,0 z"
         style="fill:#e31e2d;fill-opacity:1;fill-rule:nonzero;stroke:none"
         id="path79" />
    </g>
    <path
       id="path83"
       style="fill:#8cbb2b;fill-opacity:1;fill-rule:nonzero;stroke:none"
       d="M 147.53575,274.26238 L 144.407,277.39113 L 147.53575,280.51988 L 150.6645,277.38988 L 147.53575,274.26238 z" />
  </g>
</svg>
