<?xml version="1.0" encoding="utf-8"?>
<!-- Generator: Adobe Illustrator 22.0.1, SVG Export Plug-In . SVG Version: 6.00 Build 0)  -->
<svg version="1.1" id="Ebene_1" xmlns="http://www.w3.org/2000/svg" xmlns:xlink="http://www.w3.org/1999/xlink" x="0px" y="0px"
	 viewBox="0 0 1984.2 425.2" style="enable-background:new 0 0 1984.2 425.2;" xml:space="preserve">
<style type="text/css">
	.st0{fill:#26834E;}
	.st1{fill:#CD2528;}
</style>
<path class="st0" d="M1962.5,123.5c-16.5-28.9-40.7-56.1-68-73.4c-61.4-40.7-152.6-44-216.8-9.7c-65.8,33.8-111.2,104.6-106.4,181.5
	c4,82.4,64,154.1,141.6,176.6c82.4,26.1,175.6-1.7,228.8-65.4C1987.6,277.1,1999.2,188.8,1962.5,123.5z M1899.3,318.7
	c-19.9,16.9-41.3,34.6-68.8,29c-15-3.5-25.8-14-29.6-28.2c-3.3-12.4-2.4-24.3-0.8-37.1l111.8-0.2l-3-3.8
	c-56.4-66.6-101.2-141.8-131.2-221c-32.2,80.2-77.4,159.4-131.2,225.2l109.6-0.2c-0.6,14.7,2.8,32.6-4,45.2
	c-6.8,13.8-22.8,20.6-37.6,21c-44.2-4.1-73.6-43-90.4-79.8c-19.6-45.2-12.4-107.3,18.4-146c42.8-56.9,118.4-79.9,188.8-58.1
	c43,13.5,81.1,47,100,89.5h0C1953.6,206.9,1940.4,277.4,1899.3,318.7z"/>
<path class="st1" d="M635.3,102.7c36.2,0,65.6,37.6,64.6,76.9c-0.9,37.9-33.7,72.9-63.8,72.9H509.7c-18.5-2.3-32.7-15.8-40-31.5
	c-2.5-6.1-2.6-14.7-3.3-21.1l6.5,0.1h152.8c6.6,0,12.9-6.1,16-13.7c2.9-7,2.7-12.7-0.8-19.4c-3.8-7.4-10.8-12.1-17.6-12.1H452.9
	l-1.6,1.6v152.1c0,14.2-12.3,24.6-26.7,24.3c-12.7-0.2-24.5-10.6-24.5-24V146.1c0-13.5,5.1-21.4,14.6-30.5
	c8.9-8.3,20.5-12.9,32.6-13.1L635.3,102.7L635.3,102.7z"/>
<path class="st1" d="M1073.7,298.5c-29.9-43.2-88.7-119.9-117.9-160.7v0c-20.9-27.1-23-34.8-53.3-35.2c-19.3-0.1-30.4,11-40.8,26.6
	L738.5,293.7c-4.9,8-5.4,16.3-1.6,25c2.4,6.7,9.4,13,16.8,14.5c14.2,2.6,23.4-4.3,30.6-14.2l23-31.4l194.4,0.4
	c11.6,14.4,21.6,30.6,36,43.5c9.2,4.3,22.4,2.7,30.4-4.8C1073,318.8,1077.4,308.3,1073.7,298.5z M847.8,234.8l56.2-71
	c0,0,1.5-2.4,3-2.3c1.4,0.1,2.6,2.6,2.6,2.6c16.8,23.5,35.3,46.2,51.3,70.7H847.8z"/>
<path class="st1" d="M1392.9,102.7c26.7,0,51.7,20.4,61.8,49.9c10.8,31.5,0.8,59.5-23.4,82.2c-5.4,5.1-15.2,11.3-15.2,11.3
	l33.4,48.2c3.1,4.4,4,13.2,1.2,20.7c-2.6,7-6.1,11.1-13,14.1c-9.3,4-21.6,0.3-25.6-4.6c0,0-31.9-39.2-49.6-61.5
	c-3.1-3.3-4.7-6.3-8-9.7l-85.2,0.4c-21.1,0.1-46-25.4-46-45.6v-7.8l158.6-0.2c5.9,0,12.6-5.6,15.8-12.9c2.9-6.6,2.9-11.9,0-18.5
	c-3.5-7.9-11.3-13.5-17.4-13.5l-172.5,0.5l-0.5,1.7v154.9c0,10.3-14.1,23.6-28,22.3c-12.8-1.2-23.3-14.3-23.2-23.5l0.2-164.2
	c0-17.1,5-23.8,15.7-33.2c10.4-9.2,19.9-11.2,33.7-11.2L1392.9,102.7L1392.9,102.7z"/>
<path class="st1" d="M284.9,127.5c3.3,6.8,5,14.1,4.8,23.2L78,150.8c-6.5,0-16.6,3.7-20.3,12.2c-4.6,10.6,0.7,22.8,11.2,27.4
	c4.2,1.9,11.6,1.6,11.6,1.6h154c27.6,2,52.1,19.8,61.6,49.2c8.3,25.6,4,46.9-12.8,67.8c-19.4,24.1-46,24.4-75.2,24.4l-170.4-0.2
	C19.1,333.2,3.6,314.8,1,296l-0.1-9.5l225,0.2c7.5,0,17.2-10.5,17.4-21.2c0.3-11.6-7.7-22.6-19.1-22.6H62c-28,0-56.6-26.5-61.2-59.7
	c-3.7-26.8,5-47.1,25.7-64.4C42.1,105.7,54,102,75.7,101.9l149.9-0.2C248.8,101.3,274,105.3,284.9,127.5L284.9,127.5z"/>
</svg>
